<svg xmlns="http://www.w3.org/2000/svg" width="339" height="106" viewBox="0 0 339 106" fill="none"><path d="M49.8678 0C22.4153 0 0 22.2752 0 49.5561C0 76.8369 22.4153 99.1121 49.8678 99.1121C77.3202 99.1121 99.7355 76.8369 99.7355 49.5561C99.7355 22.2752 77.5721 0 49.8678 0ZM81.3499 21.5243C81.3499 21.7746 81.3499 21.7746 81.0981 22.0249C78.0758 22.0249 60.4458 27.7814 58.4309 31.786C65.2311 30.034 74.5498 29.5334 76.0609 32.0362C76.0609 32.2865 75.8091 32.2865 75.8091 32.5368C71.0238 31.5357 54.4012 40.7961 49.6159 39.795C55.6605 45.3012 66.9941 39.0442 69.0089 40.5459C60.4458 49.8063 50.6233 56.3137 50.6233 56.3137C46.3418 54.5617 36.5193 53.3103 30.2229 65.8245C26.1932 73.5832 26.9487 77.8381 26.9487 77.8381C22.4153 78.5889 16.8744 85.3465 16.8744 85.3465C16.8744 85.3465 21.6597 69.3284 40.0453 43.5493C59.1865 16.5187 80.0906 12.5142 81.8536 12.2639C79.3351 13.7656 72.0312 16.2684 64.2236 25.0283C71.7793 20.5232 79.0832 20.7735 81.3499 21.5243Z" fill="#C10230"></path><path d="M186.374 12.7644L176.804 22.0249L167.233 12.7644L176.804 3.50397L186.374 12.7644ZM169.5 27.7814L183.604 26.53V83.8448L169.5 84.846V27.7814Z" fill="#C10230"></path><path d="M195.441 84.5957V8.25937L209.545 6.50739V83.5946L195.441 84.5957Z" fill="#C10230"></path><path d="M230.45 66.325C220.879 62.3205 217.101 57.3148 217.101 48.0543C217.101 35.0396 228.435 26.0294 242.791 26.0294C249.339 26.0294 254.376 26.7803 256.391 26.7803C261.932 26.7803 269.739 25.0283 276.036 23.026L273.265 34.7893H264.702C268.228 38.7939 270.243 42.7984 270.243 48.5549C270.243 56.3137 265.458 62.0702 258.154 65.0736C265.961 68.8278 270.999 74.5844 270.999 83.3443C270.999 98.6115 256.391 105.369 244.302 105.369C231.457 105.369 223.146 102.115 215.842 94.1064L224.405 85.0962C230.45 91.3533 233.976 93.6059 242.791 93.6059C248.331 93.6059 256.139 90.1019 256.139 82.5934C256.139 74.0838 249.339 70.0793 241.279 70.0793C236.494 70.0793 231.709 71.8312 227.679 74.0838L230.45 66.325ZM243.798 59.8176C250.094 59.8176 256.391 54.812 256.391 48.0543C256.391 41.547 250.346 36.5413 243.798 36.5413C237.25 36.5413 231.205 41.547 231.205 48.0543C231.205 54.812 237.25 59.8176 243.798 59.8176Z" fill="#C10230"></path><path d="M307.77 26.0294C324.392 26.0294 339 38.7939 339 55.8131C339 72.5821 324.392 85.5968 307.77 85.5968C291.147 85.5968 276.539 72.8324 276.539 55.8131C276.539 38.7939 291.147 26.0294 307.77 26.0294ZM307.77 72.5821C317.34 72.5821 325.652 65.3239 325.652 55.5628C325.652 46.0521 317.34 38.5436 307.77 38.5436C298.199 38.5436 289.888 45.8018 289.888 55.5628C289.888 65.3239 298.199 72.5821 307.77 72.5821Z" fill="#C10230"></path><path d="M161.944 15.7678C150.611 13.0147 143.307 18.2707 143.307 28.0317H157.663V40.0453H143.307V83.8449L129.203 84.846V40.0453H120.388L123.41 28.0317H129.203C129.455 20.0227 130.966 0.500578 156.907 2.75313L161.944 15.7678Z" fill="#C10230"></path></svg>